<svg version="1.1" viewBox="0.0 0.0 960.0 540.0" fill="none" stroke="none" stroke-linecap="square" stroke-miterlimit="10" xmlns:xlink="http://www.w3.org/1999/xlink" xmlns="http://www.w3.org/2000/svg"><clipPath id="p.0"><path d="m0 0l960.0 0l0 540.0l-960.0 0l0 -540.0z" clip-rule="nonzero"/></clipPath><g clip-path="url(#p.0)"><path fill="#ffffff" d="m0 0l960.0 0l0 540.0l-960.0 0z" fill-rule="evenodd"/><path fill="#000000" d="m20.850393 20.850393l918.2992 0l0 499.81104l-918.2992 0zm20.622202 20.622202l0 458.56662l877.0548 0l0 -458.56662z" fill-rule="evenodd"/><path fill="#000000" fill-opacity="0.0" d="m71.51181 174.6798l674.04724 0l0 121.76378l-674.04724 0z" fill-rule="evenodd"/><path fill="#000000" d="m104.57431 229.6492q5.1875 0 8.828125 1.671875q3.65625 1.65625 5.578125 4.796875q1.921875 3.125 1.921875 7.609375q0 4.46875 -1.921875 7.609375q-1.921875 3.140625 -5.578125 4.8125q-3.640625 1.65625 -8.828125 1.65625l-8.375 0l0 14.078125l-11.015625 0l0 -42.234375l19.390625 0zm-1.71875 19.890625q3.453125 0 5.203125 -1.4375q1.765625 -1.4375 1.765625 -4.375q0 -2.953125 -1.765625 -4.390625q-1.75 -1.4375 -5.203125 -1.4375l-6.65625 0l0 11.640625l6.65625 0zm24.314423 22.34375l0 -32.0l9.59375 0l0.453125 6.90625q1.21875 -3.578125 3.609375 -5.5625q2.40625 -1.984375 6.125 -1.984375q1.203125 0 2.0625 0.203125q0.875 0.1875 1.390625 0.5l-1.09375 8.96875q-0.640625 -0.265625 -1.640625 -0.421875q-0.984375 -0.15625 -2.390625 -0.15625q-1.921875 0 -3.59375 0.828125q-1.65625 0.828125 -2.65625 2.46875q-0.984375 1.625 -0.984375 4.125l0 16.125l-10.875 0zm44.99533 -20.28125q0 -2.25 -1.25 -3.5625q-1.25 -1.3125 -3.359375 -1.3125q-2.109375 0 -3.625 1.0625q-1.5 1.046875 -2.078125 3.734375l-9.21875 -2.171875q0.90625 -4.609375 4.734375 -7.359375q3.84375 -2.75 10.828125 -2.75q4.671875 0 7.96875 1.375q3.296875 1.375 5.046875 4.09375q1.765625 2.71875 1.765625 6.6875l0 11.71875q0 2.5 2.234375 2.5q1.15625 0 1.859375 -0.265625l-0.640625 6.21875q-1.921875 0.890625 -4.671875 0.890625q-2.5 0 -4.421875 -0.796875q-1.90625 -0.8125 -3.0 -2.4375q-1.09375 -1.625 -1.09375 -4.125l0 -0.390625l1.21875 -0.4375q0 2.75 -1.640625 4.609375q-1.625 1.84375 -4.21875 2.75q-2.59375 0.890625 -5.40625 0.890625q-3.265625 0 -5.703125 -1.015625q-2.421875 -1.03125 -3.734375 -2.984375q-1.3125 -1.953125 -1.3125 -4.828125q0 -3.453125 2.078125 -5.71875q2.078125 -2.28125 6.5625 -3.1875l12.09375 -2.484375l-0.0625 5.75l-6.140625 1.28125q-1.921875 0.390625 -2.859375 1.125q-0.921875 0.734375 -0.921875 2.203125q0 1.40625 1.015625 2.109375q1.03125 0.703125 2.4375 0.703125q1.09375 0 2.078125 -0.3125q1.0 -0.328125 1.765625 -1.0q0.765625 -0.671875 1.21875 -1.6875q0.453125 -1.03125 0.453125 -2.4375l0 -8.4375zm34.112442 -12.359375q4.859375 0 8.09375 1.375q3.234375 1.375 5.046875 3.65625q1.828125 2.265625 2.28125 4.890625l-10.046875 3.328125q-0.453125 -2.75 -1.640625 -4.125q-1.1875 -1.375 -3.421875 -1.375q-2.046875 0 -3.421875 0.921875q-1.375 0.921875 -2.078125 2.9375q-0.703125 2.015625 -0.703125 5.15625q0 3.140625 0.765625 5.09375q0.765625 1.953125 2.171875 2.8125q1.40625 0.859375 3.328125 0.859375q1.609375 0 2.65625 -0.59375q1.0625 -0.609375 1.765625 -1.765625q0.703125 -1.15625 0.890625 -2.8125l9.796875 3.125q-0.453125 2.8125 -2.40625 5.03125q-1.953125 2.203125 -5.15625 3.484375q-3.1875 1.28125 -7.484375 1.28125q-5.25 0 -9.15625 -1.953125q-3.890625 -1.953125 -6.015625 -5.6875q-2.109375 -3.75 -2.109375 -9.0q0 -5.25 2.109375 -8.984375q2.125 -3.75 5.921875 -5.703125q3.8125 -1.953125 8.8125 -1.953125zm34.49106 -9.53125l0 30.78125q0 2.296875 1.109375 3.296875q1.125 0.984375 3.109375 0.984375q1.546875 0 2.65625 -0.34375q1.125 -0.359375 2.015625 -1.0625l1.15625 6.71875q-1.59375 1.15625 -4.03125 1.796875q-2.4375 0.640625 -5.0 0.640625q-3.640625 0 -6.296875 -1.015625q-2.65625 -1.03125 -4.09375 -3.265625q-1.4375 -2.25 -1.5 -5.953125l0 -29.578125l10.875 -3.0zm9.53125 10.171875l0 7.75l-25.921875 0l0 -7.75l25.921875 0zm10.499222 -3.71875q-3.328125 0 -4.8281403 -1.234375q-1.5 -1.25 -1.5 -3.9375q0 -2.75 1.5 -4.0q1.5000153 -1.25 4.8281403 -1.25q3.265625 0 4.796875 1.25q1.546875 1.25 1.546875 4.0q0 2.6875 -1.546875 3.9375q-1.53125 1.234375 -4.796875 1.234375zm5.4375 3.71875l0 32.0l-10.875015 0l0 -32.0l10.875015 0zm22.920837 -0.640625q4.859375 0 8.09375 1.375q3.234375 1.375 5.046875 3.65625q1.828125 2.265625 2.28125 4.890625l-10.046875 3.328125q-0.453125 -2.75 -1.640625 -4.125q-1.1875 -1.375 -3.421875 -1.375q-2.046875 0 -3.421875 0.921875q-1.375 0.921875 -2.078125 2.9375q-0.703125 2.015625 -0.703125 5.15625q0 3.140625 0.765625 5.09375q0.765625 1.953125 2.171875 2.8125q1.40625 0.859375 3.328125 0.859375q1.609375 0 2.65625 -0.59375q1.0625 -0.609375 1.765625 -1.765625q0.703125 -1.15625 0.890625 -2.8125l9.796875 3.125q-0.453125 2.8125 -2.40625 5.03125q-1.953125 2.203125 -5.15625 3.484375q-3.1875 1.28125 -7.484375 1.28125q-5.25 0 -9.15625 -1.953125q-3.890625 -1.953125 -6.015625 -5.6875q-2.109375 -3.75 -2.109375 -9.0q0 -5.25 2.109375 -8.984375q2.125 -3.75 5.921875 -5.703125q3.8125 -1.953125 8.8125 -1.953125zm38.975403 12.359375q0 -2.25 -1.2499695 -3.5625q-1.25 -1.3125 -3.359375 -1.3125q-2.109375 0 -3.625 1.0625q-1.5 1.046875 -2.078125 3.734375l-9.21875 -2.171875q0.90625 -4.609375 4.734375 -7.359375q3.84375 -2.75 10.828125 -2.75q4.6718445 0 7.9687195 1.375q3.296875 1.375 5.046875 4.09375q1.765625 2.71875 1.765625 6.6875l0 11.71875q0 2.5 2.234375 2.5q1.15625 0 1.859375 -0.265625l-0.640625 6.21875q-1.921875 0.890625 -4.671875 0.890625q-2.5 0 -4.421875 -0.796875q-1.90625 -0.8125 -3.0 -2.4375q-1.09375 -1.625 -1.09375 -4.125l0 -0.390625l1.21875 -0.4375q0 2.75 -1.640625 4.609375q-1.6249695 1.84375 -4.2187195 2.75q-2.59375 0.890625 -5.40625 0.890625q-3.265625 0 -5.703125 -1.015625q-2.421875 -1.03125 -3.734375 -2.984375q-1.3125 -1.953125 -1.3125 -4.828125q0 -3.453125 2.078125 -5.71875q2.078125 -2.28125 6.5625 -3.1875l12.0937195 -2.484375l-0.0625 5.75l-6.1405945 1.28125q-1.921875 0.390625 -2.859375 1.125q-0.921875 0.734375 -0.921875 2.203125q0 1.40625 1.015625 2.109375q1.03125 0.703125 2.4375 0.703125q1.09375 0 2.078125 -0.3125q1.0 -0.328125 1.765625 -1.0q0.765625 -0.671875 1.2187195 -1.6875q0.453125 -1.03125 0.453125 -2.4375l0 -8.4375zm29.946594 -25.28125l0 34.6875q0 2.109375 0.703125 3.015625q0.703125 0.890625 2.375 0.890625q0.953125 0 1.59375 -0.125q0.640625 -0.140625 1.53125 -0.390625l-0.703125 6.53125q-1.140625 0.703125 -3.0 1.140625q-1.859375 0.453125 -3.65625 0.453125q-5.109375 0 -7.421875 -2.359375q-2.296875 -2.375 -2.296875 -7.75l0 -36.09375l10.875 0zm47.742188 3.328125q5.1875 0 8.828125 1.671875q3.65625 1.65625 5.578125 4.796875q1.921875 3.125 1.921875 7.609375q0 4.46875 -1.921875 7.609375q-1.921875 3.140625 -5.578125 4.8125q-3.640625 1.65625 -8.828125 1.65625l-8.375 0l0 14.078125l-11.015625 0l0 -42.234375l19.390625 0zm-1.71875 19.890625q3.453125 0 5.203125 -1.4375q1.765625 -1.4375 1.765625 -4.375q0 -2.953125 -1.765625 -4.390625q-1.75 -1.4375 -5.203125 -1.4375l-6.65625 0l0 11.640625l6.65625 0zm42.173798 2.0625q0 -2.25 -1.25 -3.5625q-1.25 -1.3125 -3.359375 -1.3125q-2.109375 0 -3.625 1.0625q-1.5 1.046875 -2.078125 3.734375l-9.21875 -2.171875q0.90625 -4.609375 4.734375 -7.359375q3.84375 -2.75 10.828125 -2.75q4.671875 0 7.96875 1.375q3.296875 1.375 5.046875 4.09375q1.765625 2.71875 1.765625 6.6875l0 11.71875q0 2.5 2.234375 2.5q1.15625 0 1.859375 -0.265625l-0.640625 6.21875q-1.921875 0.890625 -4.671875 0.890625q-2.5 0 -4.421875 -0.796875q-1.90625 -0.8125 -3.0 -2.4375q-1.09375 -1.625 -1.09375 -4.125l0 -0.390625l1.21875 -0.4375q0 2.75 -1.640625 4.609375q-1.625 1.84375 -4.21875 2.75q-2.59375 0.890625 -5.40625 0.890625q-3.265625 0 -5.703125 -1.015625q-2.421875 -1.03125 -3.734375 -2.984375q-1.3125 -1.953125 -1.3125 -4.828125q0 -3.453125 2.078125 -5.71875q2.078125 -2.28125 6.5625 -3.1875l12.09375 -2.484375l-0.0625 5.75l-6.140625 1.28125q-1.921875 0.390625 -2.859375 1.125q-0.921875 0.734375 -0.921875 2.203125q0 1.40625 1.015625 2.109375q1.03125 0.703125 2.4375 0.703125q1.09375 0 2.078125 -0.3125q1.0 -0.328125 1.765625 -1.0q0.765625 -0.671875 1.21875 -1.6875q0.453125 -1.03125 0.453125 -2.4375l0 -8.4375zm19.196564 20.28125l0 -32.0l9.59375 0l0.453125 6.90625q1.21875 -3.578125 3.609375 -5.5625q2.40625 -1.984375 6.125 -1.984375q1.203125 0 2.0625 0.203125q0.875 0.1875 1.390625 0.5l-1.09375 8.96875q-0.640625 -0.265625 -1.640625 -0.421875q-0.984375 -0.15625 -2.390625 -0.15625q-1.921875 0 -3.59375 0.828125q-1.65625 0.828125 -2.65625 2.46875q-0.984375 1.625 -0.984375 4.125l0 16.125l-10.875 0zm40.445465 0.640625q-4.796875 0 -8.9375 -1.5625q-4.125 -1.578125 -6.8125 -4.515625l5.125 -6.015625q1.59375 2.046875 4.25 3.421875q2.65625 1.375 5.921875 1.375q1.984375 0 3.265625 -0.578125q1.28125 -0.578125 1.28125 -1.796875q0 -0.890625 -0.640625 -1.4375q-0.640625 -0.546875 -2.5625 -0.921875l-4.46875 -0.890625q-6.015625 -1.21875 -8.546875 -3.609375q-2.53125 -2.40625 -2.53125 -6.3125q0 -2.625 1.59375 -5.015625q1.609375 -2.40625 4.9375 -3.90625q3.328125 -1.515625 8.515625 -1.515625q4.859375 0 8.5625 1.40625q3.71875 1.40625 5.890625 4.09375l-5.171875 5.890625q-1.546875 -1.921875 -3.984375 -3.0q-2.421875 -1.09375 -4.859375 -1.09375q-1.53125 0 -2.59375 0.296875q-1.046875 0.28125 -1.5625 0.796875q-0.515625 0.5 -0.515625 1.28125q0 0.828125 0.796875 1.4375q0.8125 0.609375 2.984375 1.046875l5.828125 1.15625q4.921875 0.890625 7.09375 3.265625q2.1875 2.359375 2.1875 5.6875q0 3.140625 -1.671875 5.640625q-1.65625 2.5 -4.984375 3.9375q-3.328125 1.4375 -8.390625 1.4375zm26.111938 -36.359375q-3.328125 0 -4.828125 -1.234375q-1.5 -1.25 -1.5 -3.9375q0 -2.75 1.5 -4.0q1.5 -1.25 4.828125 -1.25q3.265625 0 4.796875 1.25q1.546875 1.25 1.546875 4.0q0 2.6875 -1.546875 3.9375q-1.53125 1.234375 -4.796875 1.234375zm5.4375 3.71875l0 32.0l-10.875 0l0 -32.0l10.875 0zm7.7489624 32.0l0 -32.0l9.71875 0l0.578125 11.015625l-1.21875 -1.21875q0.640625 -3.453125 2.265625 -5.75q1.640625 -2.3125 4.109375 -3.5q2.46875 -1.1875 5.53125 -1.1875q3.328125 0 5.796875 1.28125q2.46875 1.28125 3.875 3.78125q1.40625 2.484375 1.40625 6.265625l0 21.3125l-10.875 0l0 -18.4375q0 -3.328125 -1.28125 -4.59375q-1.28125 -1.28125 -3.265625 -1.28125q-1.53125 0 -2.890625 0.734375q-1.34375 0.734375 -2.109375 2.34375q-0.765625 1.59375 -0.765625 4.28125l0 16.953125l-10.875 0zm70.64868 -40.578125l0.90625 7.296875q-0.390625 -0.125 -0.78125 -0.15625q-0.375 -0.03125 -0.765625 -0.03125q-2.8125 0 -4.1875 1.375q-1.375 1.375 -1.375 3.421875l-3.84375 -1.40625q0 -2.625 0.953125 -5.046875q0.96875 -2.4375 2.984375 -3.96875q2.015625 -1.546875 5.09375 -1.546875q0.1875 0 0.46875 0q0.296875 0 0.546875 0.0625zm-11.0 33.46875q5.5625 0 8.53125 2.34375q2.984375 2.328125 2.984375 6.6875q0 3.96875 -2.171875 6.59375q-2.171875 2.625 -6.109375 3.9375q-3.9375 1.3125 -9.3125 1.3125q-8.703125 0 -12.546875 -2.1875q-3.84375 -2.171875 -3.84375 -5.875q0 -2.6875 2.171875 -4.359375q2.1875 -1.65625 7.234375 -1.796875l-0.25 1.03125q-3.90625 -0.515625 -5.828125 -2.296875q-1.921875 -1.796875 -1.921875 -4.875q0 -3.0625 2.4375 -4.984375q2.4375 -1.921875 6.46875 -2.125l3.96875 1.859375l-1.03125 0q-2.5 0.125 -3.53125 0.84375q-1.015625 0.703125 -1.015625 1.71875q0 1.09375 0.890625 1.640625q0.90625 0.53125 2.703125 0.53125l10.171875 0zm-6.015625 13.828125q3.0625 0 5.078125 -0.421875q2.015625 -0.40625 3.046875 -1.140625q1.03125 -0.734375 1.03125 -1.703125q0 -0.953125 -0.71875 -1.5q-0.703125 -0.546875 -2.546875 -0.546875l-11.46875 0q-1.203125 0 -1.953125 0.640625q-0.734375 0.640625 -0.734375 1.59375q0 1.484375 2.171875 2.28125q2.1875 0.796875 6.09375 0.796875zm0.375 -39.359375q4.875 0 8.328125 1.28125q3.453125 1.28125 5.265625 3.6875q1.828125 2.390625 1.828125 5.90625q0 3.46875 -1.828125 5.90625q-1.8125 2.421875 -5.265625 3.671875q-3.453125 1.25 -8.328125 1.25q-7.609375 0 -11.546875 -2.8125q-3.9375 -2.828125 -3.9375 -8.015625q0 -3.515625 1.828125 -5.90625q1.828125 -2.40625 5.28125 -3.6875q3.453125 -1.28125 8.375 -1.28125zm0 6.203125q-2.109375 0 -3.421875 1.21875q-1.3125 1.21875 -1.3125 3.453125q0 2.1875 1.3125 3.40625q1.3125 1.203125 3.421875 1.203125q2.046875 0 3.390625 -1.203125q1.34375 -1.21875 1.34375 -3.40625q0 -2.234375 -1.34375 -3.453125q-1.34375 -1.21875 -3.390625 -1.21875z" fill-rule="nonzero"/><path fill="#000000" fill-opacity="0.0" d="m71.51181 296.44357l674.04724 0l0 198.58267l-674.04724 0z" fill-rule="evenodd"/><path fill="#000000" d="m91.183685 376.81607l27.453125 0l0 3.1875l-30.921875 0l0 -45.75l3.46875 0l0 42.5625zm47.008286 3.875q-4.78125 0 -8.53125 -2.140625q-3.734375 -2.15625 -5.859375 -6.203125q-2.109375 -4.0625 -2.109375 -9.671875q0 -5.625 2.109375 -9.671875q2.125 -4.0625 5.765625 -6.203125q3.640625 -2.15625 8.203125 -2.15625q4.71875 0 8.046875 2.078125q3.328125 2.078125 5.125 5.796875q1.8125 3.703125 1.8125 8.5625q0 0.625 -0.046875 1.21875q-0.03125 0.578125 -0.09375 1.0625l-28.765625 0l0 -3.125l27.234375 0l-1.734375 0.5q-0.0625 -5.96875 -3.15625 -9.5q-3.078125 -3.546875 -8.484375 -3.546875q-3.75 0 -6.59375 1.78125q-2.828125 1.765625 -4.4375 5.125q-1.59375 3.359375 -1.59375 8.078125q0 4.640625 1.625 8.046875q1.640625 3.390625 4.578125 5.15625q2.953125 1.765625 6.84375 1.765625q4.015625 0 6.890625 -1.734375q2.875 -1.734375 4.46875 -4.78125l2.78125 1.59375q-1.25 2.5 -3.328125 4.265625q-2.078125 1.765625 -4.78125 2.734375q-2.703125 0.96875 -5.96875 0.96875zm47.28569 -35.34375l3.671875 0l-14.484375 34.65625l-3.46875 0l-14.5 -34.65625l3.890625 0l12.40625 31.046875l12.484375 -31.046875zm24.676727 35.34375q-4.78125 0 -8.53125 -2.140625q-3.734375 -2.15625 -5.859375 -6.203125q-2.109375 -4.0625 -2.109375 -9.671875q0 -5.625 2.109375 -9.671875q2.125 -4.0625 5.765625 -6.203125q3.640625 -2.15625 8.203125 -2.15625q4.71875 0 8.046875 2.078125q3.328125 2.078125 5.125 5.796875q1.8125 3.703125 1.8125 8.5625q0 0.625 -0.046875 1.21875q-0.03125 0.578125 -0.09375 1.0625l-28.765625 0l0 -3.125l27.234375 0l-1.734375 0.5q-0.0625 -5.96875 -3.15625 -9.5q-3.078125 -3.546875 -8.484375 -3.546875q-3.75 0 -6.59375 1.78125q-2.828125 1.765625 -4.4375 5.125q-1.59375 3.359375 -1.59375 8.078125q0 4.640625 1.625 8.046875q1.640625 3.390625 4.578125 5.15625q2.953125 1.765625 6.84375 1.765625q4.015625 0 6.890625 -1.734375q2.875 -1.734375 4.46875 -4.78125l2.78125 1.59375q-1.25 2.5 -3.328125 4.265625q-2.078125 1.765625 -4.78125 2.734375q-2.703125 0.96875 -5.96875 0.96875zm27.662613 -51.296875l0 42.421875q0 3.203125 1.109375 4.515625q1.109375 1.3125 3.46875 1.3125q1.453125 0 2.3125 -0.203125q0.875 -0.203125 2.046875 -0.703125l-0.484375 3.0625q-0.890625 0.40625 -2.046875 0.640625q-1.140625 0.25 -2.53125 0.25q-3.671875 0 -5.515625 -2.109375q-1.828125 -2.109375 -1.828125 -6.625l0 -42.5625l3.46875 0zm70.57066 4.859375l0 29.046875q0 8.515625 -4.609375 12.953125q-4.609375 4.4375 -13.0 4.4375q-8.390625 0 -13.03125 -4.4375q-4.640625 -4.4375 -4.640625 -12.953125l0 -29.046875l3.46875 0l0 28.34375q0 7.359375 3.640625 11.140625q3.640625 3.765625 10.5625 3.765625q6.9375 0 10.53125 -3.765625q3.609375 -3.78125 3.609375 -11.140625l0 -28.34375l3.46875 0zm12.13916 60.3125l0 -49.21875l3.125 0l0.265625 9.625l-0.484375 -0.546875q0.90625 -2.984375 2.8125 -5.203125q1.90625 -2.21875 4.671875 -3.390625q2.78125 -1.1875 6.03125 -1.1875q4.4375 0 7.96875 2.15625q3.546875 2.140625 5.625 6.171875q2.078125 4.015625 2.078125 9.703125q0 5.609375 -2.078125 9.671875q-2.078125 4.046875 -5.65625 6.203125q-3.5625 2.140625 -8.0625 2.140625q-4.796875 0 -8.328125 -2.53125q-3.53125 -2.53125 -4.921875 -6.828125l0.421875 -0.625l0 23.859375l-3.46875 0zm15.875 -16.921875q5.890625 0 9.3125 -4.015625q3.4375 -4.03125 3.4375 -10.953125q0 -6.9375 -3.390625 -10.953125q-3.390625 -4.03125 -9.21875 -4.03125q-3.671875 0 -6.484375 1.84375q-2.8125 1.84375 -4.4375 5.203125q-1.625 3.359375 -1.625 7.9375q0 4.5 1.59375 7.90625q1.59375 3.390625 4.390625 5.234375q2.8125 1.828125 6.421875 1.828125zm56.014313 2.359375l-14.28125 -45.75l3.609375 0l12.890625 42.5625l11.921875 -42.5625l4.03125 0l11.984375 42.625l12.90625 -42.625l3.453125 0l-14.28125 45.75l-4.296875 0l-9.21875 -32.09375l-2.5625 -9.921875l-0.0625 0l-2.578125 9.921875l-9.21875 32.09375l-4.296875 0zm56.507294 -41.390625q-1.3125 0 -2.125 -0.796875q-0.796875 -0.796875 -0.796875 -2.109375q0 -1.328125 0.796875 -2.125q0.8125 -0.796875 2.125 -0.796875q1.3125 0 2.109375 0.796875q0.796875 0.796875 0.796875 2.125q0 1.3125 -0.796875 2.109375q-0.796875 0.796875 -2.109375 0.796875zm1.734375 6.734375l0 34.65625l-3.46875 0l0 -34.65625l3.46875 0zm18.15738 -9.640625l0 35.140625q0 3.265625 1.5625 4.96875q1.5625 1.6875 4.546875 1.6875q1.9375 0 3.421875 -0.65625q1.5 -0.65625 2.671875 -1.90625l1.3125 2.84375q-1.3125 1.3125 -3.328125 2.109375q-2.0 0.796875 -4.5 0.796875q-2.703125 0 -4.78125 -1.0q-2.078125 -1.0 -3.234375 -3.078125q-1.140625 -2.09375 -1.140625 -5.28125l0 -34.65625l3.46875 -0.96875zm12.96875 9.640625l0 2.96875l-23.359375 0l0 -2.96875l23.359375 0zm7.417938 34.65625l0 -50.609375l3.46875 0l0 23.015625q1.515625 -3.671875 4.90625 -5.71875q3.40625 -2.046875 7.84375 -2.046875q3.890625 0 6.8594055 1.421875q2.984375 1.421875 4.6875 4.296875q1.703125 2.875 1.703125 7.109375l0 22.53125l-3.46875 0l0 -21.421875q0 -5.609375 -2.8125 -8.28125q-2.8125305 -2.671875 -7.3125305 -2.671875q-3.265625 0 -6.078125 1.53125q-2.796875 1.515625 -4.5625 4.359375q-1.765625 2.84375 -1.765625 6.9375l0 19.546875l-3.46875 0z" fill-rule="nonzero"/><path fill="#000000" d="m102.902435 417.25357q4.78125 0 8.25 1.625q3.46875 1.625 5.375 4.609375q1.90625 2.984375 1.90625 7.140625q0 4.234375 -1.90625 7.21875q-1.90625 2.96875 -5.375 4.609375q-3.46875 1.625 -8.25 1.625l-11.71875 0l0 18.921875l-3.46875 0l0 -45.75l15.1875 0zm-0.40625 23.5625q6.03125 0 9.140625 -2.65625q3.125 -2.671875 3.125 -7.53125q0 -4.859375 -3.125 -7.515625q-3.109375 -2.671875 -9.140625 -2.671875l-11.3125 0l0 20.375l11.3125 0zm45.96315 -0.625q0 -4.5 -2.4375 -7.0q-2.421875 -2.5 -6.921875 -2.5q-3.953125 0 -6.796875 1.703125q-2.84375 1.703125 -4.234375 5.65625l-2.84375 -1.8125q1.53125 -4.078125 5.09375 -6.328125q3.578125 -2.265625 8.84375 -2.265625q3.8125 0 6.6875 1.359375q2.875 1.34375 4.46875 3.984375q1.59375 2.625 1.59375 6.578125l0 17.34375q0 3.671875 3.328125 3.671875q1.46875 0 2.5 -0.484375l-0.203125 2.765625q-1.1875 0.625 -3.046875 0.625q-1.59375 0 -2.984375 -0.625q-1.390625 -0.625 -2.265625 -2.078125q-0.859375 -1.453125 -0.859375 -3.953125l0 -1.875l0.96875 -0.0625q-0.625 2.984375 -2.734375 4.96875q-2.109375 1.96875 -4.890625 2.90625q-2.765625 0.921875 -5.546875 0.921875q-3.25 0 -5.828125 -1.03125q-2.5625 -1.046875 -4.015625 -3.015625q-1.453125 -1.984375 -1.453125 -4.890625q0 -3.875 2.59375 -6.265625q2.609375 -2.40625 7.328125 -3.296875l14.34375 -2.84375l0 2.90625l-12.625 2.5q-4.078125 0.828125 -6.09375 2.421875q-2.015625 1.59375 -2.015625 4.296875q0 2.921875 2.140625 4.546875q2.15625 1.625 6.109375 1.625q2.015625 0 4.09375 -0.546875q2.078125 -0.5625 3.84375 -1.765625q1.78125 -1.21875 2.8125 -3.046875q1.046875 -1.84375 1.046875 -4.484375l0 -10.609375zm16.426392 22.8125l0 -34.65625l2.90625 0l0.421875 7.203125q1.3125 -3.609375 4.21875 -5.75q2.921875 -2.15625 7.015625 -2.15625q1.375 0 2.484375 0.28125q1.109375 0.28125 1.875 0.90625l-0.828125 3.046875q-0.765625 -0.484375 -1.671875 -0.765625q-0.890625 -0.28125 -2.703125 -0.28125q-2.625 0 -4.984375 1.640625q-2.359375 1.625 -3.8125 4.5q-1.453125 2.875 -1.453125 6.625l0 19.40625l-3.46875 0zm36.746094 0.6875q-5.265625 0 -9.328125 -2.140625q-4.0625 -2.15625 -5.71875 -6.171875l2.984375 -2.015625q1.25 3.46875 4.46875 5.375q3.21875 1.90625 7.859375 1.90625q4.578125 0 7.171875 -1.796875q2.609375 -1.8125 2.609375 -4.78125q0 -2.015625 -1.28125 -3.5q-1.28125 -1.5 -4.8125 -2.265625l-8.109375 -1.734375q-4.9375 -1.03125 -7.09375 -3.34375q-2.140625 -2.328125 -2.140625 -5.65625q0 -2.78125 1.65625 -5.0q1.671875 -2.21875 4.625 -3.5625q2.953125 -1.359375 6.890625 -1.359375q5.203125 0 8.59375 2.046875q3.40625 2.046875 4.796875 6.140625l-2.921875 1.859375q-1.03125 -3.671875 -3.84375 -5.328125q-2.8125 -1.671875 -6.625 -1.671875q-2.90625 0 -5.09375 0.875q-2.171875 0.859375 -3.390625 2.359375q-1.21875 1.484375 -1.21875 3.421875q0 2.015625 1.390625 3.65625q1.390625 1.625 4.921875 2.375l8.3125 1.8125q4.921875 1.03125 6.859375 3.15625q1.953125 2.109375 1.953125 5.234375q0 3.046875 -1.671875 5.375q-1.65625 2.3125 -4.703125 3.53125q-3.046875 1.203125 -7.140625 1.203125zm37.432556 0q-4.78125 0 -8.53125 -2.140625q-3.734375 -2.15625 -5.859375 -6.203125q-2.109375 -4.0625 -2.109375 -9.671875q0 -5.625 2.109375 -9.671875q2.125 -4.0625 5.765625 -6.203125q3.640625 -2.15625 8.203125 -2.15625q4.71875 0 8.046875 2.078125q3.328125 2.078125 5.125 5.796875q1.8125 3.703125 1.8125 8.5625q0 0.625 -0.046875 1.21875q-0.03125 0.578125 -0.09375 1.0625l-28.765625 0l0 -3.125l27.234375 0l-1.734375 0.5q-0.0625 -5.96875 -3.15625 -9.5q-3.078125 -3.546875 -8.484375 -3.546875q-3.75 0 -6.59375 1.78125q-2.828125 1.765625 -4.4375 5.125q-1.59375 3.359375 -1.59375 8.078125q0 4.640625 1.625 8.046875q1.640625 3.390625 4.578125 5.15625q2.953125 1.765625 6.84375 1.765625q4.015625 0 6.890625 -1.734375q2.875 -1.734375 4.46875 -4.78125l2.78125 1.59375q-1.25 2.5 -3.328125 4.265625q-2.078125 1.765625 -4.78125 2.734375q-2.703125 0.96875 -5.96875 0.96875zm24.475113 -0.6875l0 -34.65625l2.90625 0l0.421875 7.203125q1.3125 -3.609375 4.21875 -5.75q2.921875 -2.15625 7.015625 -2.15625q1.375 0 2.484375 0.28125q1.109375 0.28125 1.875 0.90625l-0.828125 3.046875q-0.765625 -0.484375 -1.671875 -0.765625q-0.890625 -0.28125 -2.703125 -0.28125q-2.625 0 -4.984375 1.640625q-2.359375 1.625 -3.8125 4.5q-1.453125 2.875 -1.453125 6.625l0 19.40625l-3.46875 0zm83.476074 -11.578125q-1.328125 3.8125 -3.9375 6.59375q-2.59375 2.765625 -6.234375 4.21875q-3.625 1.453125 -8.140625 1.453125q-6.234375 0 -10.921875 -2.875q-4.671875 -2.875 -7.28125 -8.140625q-2.59375 -5.265625 -2.59375 -12.546875q0 -7.28125 2.5625 -12.546875q2.5625 -5.28125 7.234375 -8.15625q4.6875 -2.875 10.9375 -2.875q4.640625 0 8.140625 1.28125q3.5 1.28125 5.921875 3.8125q2.4375 2.53125 3.6875 6.203125l-3.40625 1.59375q-1.59375 -4.78125 -5.0625 -7.234375q-3.46875 -2.46875 -9.078125 -2.46875q-5.125 0 -9.046875 2.46875q-3.921875 2.453125 -6.078125 7.0q-2.140625 4.546875 -2.140625 10.921875q0 6.3125 2.109375 10.890625q2.125 4.5625 6.0 7.03125q3.890625 2.453125 9.015625 2.453125q5.546875 0 9.421875 -2.65625q3.890625 -2.671875 5.421875 -7.734375l3.46875 1.3125zm22.940063 -23.78125q4.859375 0 8.5625 2.15625q3.703125 2.140625 5.8125 6.203125q2.125 4.046875 2.125 9.671875q0 5.609375 -2.125 9.671875q-2.109375 4.046875 -5.8125 6.203125q-3.703125 2.140625 -8.5625 2.140625q-4.859375 0 -8.5625 -2.140625q-3.703125 -2.15625 -5.828125 -6.203125q-2.109375 -4.0625 -2.109375 -9.671875q0 -5.625 2.109375 -9.671875q2.125 -4.0625 5.828125 -6.203125q3.703125 -2.15625 8.5625 -2.15625zm0 2.984375q-3.953125 0 -6.875 1.8125q-2.90625 1.796875 -4.53125 5.15625q-1.625 3.359375 -1.625 8.078125q0 4.640625 1.625 8.046875q1.625 3.390625 4.53125 5.203125q2.921875 1.796875 6.875 1.796875q3.953125 0 6.859375 -1.796875q2.921875 -1.8125 4.546875 -5.203125q1.625 -3.40625 1.625 -8.046875q0 -4.71875 -1.625 -8.078125q-1.625 -3.359375 -4.546875 -5.15625q-2.90625 -1.8125 -6.859375 -1.8125zm26.41629 32.375l0 -34.65625l3.125 0l0.203125 7.203125q1.515625 -3.75 4.953125 -5.828125q3.4375 -2.078125 7.65625 -2.078125q4.515625 0 7.796875 2.15625q3.296875 2.140625 4.546875 6.296875q0.90625 -2.625 2.90625 -4.53125q2.015625 -1.90625 4.71875 -2.9375q2.703125 -1.046875 5.625 -1.046875q3.59375 0 6.546875 1.421875q2.953125 1.421875 4.71875 4.296875q1.765625 2.875 1.765625 7.171875l0 22.46875l-3.46875 0l0 -22.125q0 -5.125 -2.75 -7.65625q-2.734375 -2.53125 -7.234375 -2.53125q-3.265625 0 -6.03125 1.5625q-2.765625 1.5625 -4.40625 4.375q-1.625 2.796875 -1.625 6.46875l0 19.96875l-3.46875 0l0 -22.109375q0 -5.140625 -2.78125 -7.671875q-2.765625 -2.53125 -7.203125 -2.53125q-3.109375 0 -5.890625 1.53125q-2.765625 1.53125 -4.5 4.375q-1.734375 2.828125 -1.734375 6.78125l0 19.625l-3.46875 0zm82.85181 0.6875q-3.203125 0 -5.9375 -1.171875q-2.734375 -1.171875 -4.640625 -3.390625q-1.90625 -2.21875 -2.8125 -5.203125l0.484375 -0.5625l-0.265625 9.640625l-3.125 0l0 -50.609375l3.46875 0l0 25.234375l-0.421875 -0.625q1.390625 -4.296875 4.953125 -6.828125q3.578125 -2.53125 8.296875 -2.53125q4.5625 0 8.09375 2.15625q3.546875 2.140625 5.625 6.171875q2.078125 4.015625 2.078125 9.703125q0 5.609375 -2.078125 9.671875q-2.078125 4.046875 -5.65625 6.203125q-3.5625 2.140625 -8.0625 2.140625zm-0.421875 -3.046875q5.890625 0 9.3125 -4.015625q3.4375 -4.03125 3.4375 -10.953125q0 -6.9375 -3.390625 -10.953125q-3.390625 -4.03125 -9.296875 -4.03125q-3.59375 0 -6.4375 1.84375q-2.84375 1.84375 -4.4375 5.234375q-1.59375 3.390625 -1.59375 7.96875q0 4.515625 1.59375 7.90625q1.59375 3.390625 4.390625 5.203125q2.8125 1.796875 6.421875 1.796875zm27.941528 -39.03125q-1.3125 0 -2.125 -0.796875q-0.796875 -0.796875 -0.796875 -2.109375q0 -1.328125 0.796875 -2.125q0.8125 -0.796875 2.125 -0.796875q1.3125 0 2.109375 0.796875q0.796875 0.796875 0.796875 2.125q0 1.3125 -0.796875 2.109375q-0.796875 0.796875 -2.109375 0.796875zm1.734375 6.734375l0 34.65625l-3.46875 0l0 -34.65625l3.46875 0zm12.407379 34.65625l0 -34.65625l3.125 0l0.265625 8.65625l-0.546875 -0.484375q0.96875 -2.84375 2.90625 -4.84375q1.9375 -2.015625 4.640625 -3.015625q2.703125 -1.015625 5.828125 -1.015625q3.890625 0 6.859375 1.453125q2.984375 1.453125 4.6875 4.296875q1.703125 2.84375 1.703125 7.140625l0 22.46875l-3.46875 0l0 -21.359375q0 -5.671875 -2.8125 -8.3125q-2.8125 -2.640625 -7.3125 -2.640625q-3.265625 0 -6.078125 1.5q-2.796875 1.484375 -4.5625 4.328125q-1.765625 2.84375 -1.765625 6.9375l0 19.546875l-3.46875 0zm62.677002 -22.8125q0 -4.5 -2.437561 -7.0q-2.421875 -2.5 -6.921875 -2.5q-3.953125 0 -6.796875 1.703125q-2.84375 1.703125 -4.234375 5.65625l-2.84375 -1.8125q1.53125 -4.078125 5.09375 -6.328125q3.578125 -2.265625 8.84375 -2.265625q3.8125 0 6.6875 1.359375q2.875061 1.34375 4.468811 3.984375q1.59375 2.625 1.59375 6.578125l0 17.34375q0 3.671875 3.328125 3.671875q1.46875 0 2.5 -0.484375l-0.203125 2.765625q-1.1875 0.625 -3.046875 0.625q-1.59375 0 -2.984375 -0.625q-1.390625 -0.625 -2.265625 -2.078125q-0.85943604 -1.453125 -0.85943604 -3.953125l0 -1.875l0.96881104 -0.0625q-0.625 2.984375 -2.734436 4.96875q-2.109375 1.96875 -4.890625 2.90625q-2.765625 0.921875 -5.546875 0.921875q-3.25 0 -5.828125 -1.03125q-2.5625 -1.046875 -4.015625 -3.015625q-1.453125 -1.984375 -1.453125 -4.890625q0 -3.875 2.59375 -6.265625q2.609375 -2.40625 7.328125 -3.296875l14.343811 -2.84375l0 2.90625l-12.625061 2.5q-4.078125 0.828125 -6.09375 2.421875q-2.015625 1.59375 -2.015625 4.296875q0 2.921875 2.140625 4.546875q2.15625 1.625 6.109375 1.625q2.015625 0 4.09375 -0.546875q2.078125 -0.5625 3.84375 -1.765625q1.78125 -1.21875 2.8125 -3.046875q1.046936 -1.84375 1.046936 -4.484375l0 -10.609375zm21.136353 -21.484375l0 35.140625q0 3.265625 1.5625 4.96875q1.5625 1.6875 4.546875 1.6875q1.9375 0 3.421875 -0.65625q1.5 -0.65625 2.671875 -1.90625l1.3125 2.84375q-1.3125 1.3125 -3.328125 2.109375q-2.0 0.796875 -4.5 0.796875q-2.703125 0 -4.78125 -1.0q-2.078125 -1.0 -3.234375 -3.078125q-1.140625 -2.09375 -1.140625 -5.28125l0 -34.65625l3.46875 -0.96875zm12.96875 9.640625l0 2.96875l-23.359375 0l0 -2.96875l23.359375 0zm21.558594 -0.703125q4.859375 0 8.5625 2.15625q3.703125 2.140625 5.8125 6.203125q2.125 4.046875 2.125 9.671875q0 5.609375 -2.125 9.671875q-2.109375 4.046875 -5.8125 6.203125q-3.703125 2.140625 -8.5625 2.140625q-4.859375 0 -8.5625 -2.140625q-3.703125 -2.15625 -5.828125 -6.203125q-2.109375 -4.0625 -2.109375 -9.671875q0 -5.625 2.109375 -9.671875q2.125 -4.0625 5.828125 -6.203125q3.703125 -2.15625 8.5625 -2.15625zm0 2.984375q-3.953125 0 -6.875 1.8125q-2.90625 1.796875 -4.53125 5.15625q-1.625 3.359375 -1.625 8.078125q0 4.640625 1.625 8.046875q1.625 3.390625 4.53125 5.203125q2.921875 1.796875 6.875 1.796875q3.953125 0 6.859375 -1.796875q2.921875 -1.8125 4.546875 -5.203125q1.625 -3.40625 1.625 -8.046875q0 -4.71875 -1.625 -8.078125q-1.625 -3.359375 -4.546875 -5.15625q-2.90625 -1.8125 -6.859375 -1.8125zm26.41626 32.375l0 -34.65625l2.90625 0l0.421875 7.203125q1.3125 -3.609375 4.21875 -5.75q2.921875 -2.15625 7.015625 -2.15625q1.375 0 2.484375 0.28125q1.109375 0.28125 1.875 0.90625l-0.828125 3.046875q-0.765625 -0.484375 -1.671875 -0.765625q-0.890625 -0.28125 -2.703125 -0.28125q-2.625 0 -4.984375 1.640625q-2.359375 1.625 -3.8125 4.5q-1.453125 2.875 -1.453125 6.625l0 19.40625l-3.46875 0zm36.746094 0.6875q-5.265625 0 -9.328125 -2.140625q-4.0625 -2.15625 -5.71875 -6.171875l2.984375 -2.015625q1.25 3.46875 4.46875 5.375q3.21875 1.90625 7.859375 1.90625q4.578125 0 7.171875 -1.796875q2.609375 -1.8125 2.609375 -4.78125q0 -2.015625 -1.28125 -3.5q-1.28125 -1.5 -4.8125 -2.265625l-8.109375 -1.734375q-4.9375 -1.03125 -7.09375 -3.34375q-2.140625 -2.328125 -2.140625 -5.65625q0 -2.78125 1.65625 -5.0q1.671875 -2.21875 4.625 -3.5625q2.953125 -1.359375 6.890625 -1.359375q5.203125 0 8.59375 2.046875q3.40625 2.046875 4.796875 6.140625l-2.921875 1.859375q-1.03125 -3.671875 -3.84375 -5.328125q-2.8125 -1.671875 -6.625 -1.671875q-2.90625 0 -5.09375 0.875q-2.171875 0.859375 -3.390625 2.359375q-1.21875 1.484375 -1.21875 3.421875q0 2.015625 1.390625 3.65625q1.390625 1.625 4.921875 2.375l8.3125 1.8125q4.921875 1.03125 6.859375 3.15625q1.953125 2.109375 1.953125 5.234375q0 3.046875 -1.671875 5.375q-1.65625 2.3125 -4.703125 3.53125q-3.046875 1.203125 -7.140625 1.203125z" fill-rule="nonzero"/><path fill="#f3f3f3" d="m668.1954 158.91924l0 0c0 -61.347572 53.78058 -111.079605 120.122314 -111.079605l0 0c66.341675 0 120.12225 49.732033 120.12225 111.079605l0 0c0 61.34758 -53.78058 111.079605 -120.12225 111.079605l0 0c-66.341736 0 -120.122314 -49.732025 -120.122314 -111.079605z" fill-rule="evenodd"/><path stroke="#666666" stroke-width="1.0" stroke-linejoin="round" stroke-linecap="butt" d="m668.1954 158.91924l0 0c0 -61.347572 53.78058 -111.079605 120.122314 -111.079605l0 0c66.341675 0 120.12225 49.732033 120.12225 111.079605l0 0c0 61.34758 -53.78058 111.079605 -120.12225 111.079605l0 0c-66.341736 0 -120.122314 -49.732025 -120.122314 -111.079605z" fill-rule="evenodd"/><path fill="#f3f3f3" d="m700.615 185.90204l0 0c0 -46.44536 39.26581 -84.09675 87.7027 -84.09675l0 0c23.260132 0 45.567688 8.860168 62.015137 24.631363c16.447388 15.771202 25.6875 37.161537 25.6875 59.465385l0 0c0 46.44536 -39.26581 84.09674 -87.70264 84.09674l0 0c-48.43689 0 -87.7027 -37.651382 -87.7027 -84.09674z" fill-rule="evenodd"/><path stroke="#666666" stroke-width="1.0" stroke-linejoin="round" stroke-linecap="butt" d="m700.615 185.90204l0 0c0 -46.44536 39.26581 -84.09675 87.7027 -84.09675l0 0c23.260132 0 45.567688 8.860168 62.015137 24.631363c16.447388 15.771202 25.6875 37.161537 25.6875 59.465385l0 0c0 46.44536 -39.26581 84.09674 -87.70264 84.09674l0 0c-48.43689 0 -87.7027 -37.651382 -87.7027 -84.09674z" fill-rule="evenodd"/><path fill="#000000" fill-opacity="0.0" d="m706.26385 122.48438l164.1076 0l0 29.784966l-164.1076 0z" fill-rule="evenodd"/><path fill="#000000" d="m738.78534 139.92686q-0.28125 0.75 -0.8125 1.296875q-0.515625 0.53125 -1.21875 0.8125q-0.6875 0.28125 -1.515625 0.28125q-1.25 0 -2.171875 -0.546875q-0.90625 -0.5625 -1.40625 -1.578125q-0.5 -1.015625 -0.5 -2.40625q0 -1.40625 0.5 -2.421875q0.5 -1.015625 1.40625 -1.5625q0.921875 -0.5625 2.140625 -0.5625q0.859375 0 1.515625 0.234375q0.671875 0.234375 1.140625 0.703125q0.484375 0.453125 0.765625 1.125l-1.0625 0.484375q-0.28125 -0.75 -0.84375 -1.140625q-0.546875 -0.40625 -1.4375 -0.40625q-0.890625 0 -1.578125 0.421875q-0.671875 0.421875 -1.046875 1.21875q-0.375 0.78125 -0.375 1.90625q0 1.09375 0.359375 1.890625q0.359375 0.796875 1.015625 1.21875q0.671875 0.421875 1.578125 0.421875q0.875 0 1.53125 -0.453125q0.65625 -0.453125 0.953125 -1.34375l1.0625 0.40625zm4.6118164 -4.546875q0.9375 0 1.65625 0.421875q0.734375 0.40625 1.140625 1.1875q0.421875 0.78125 0.421875 1.859375q0 1.078125 -0.421875 1.859375q-0.40625 0.78125 -1.140625 1.203125q-0.71875 0.40625 -1.65625 0.40625q-0.9375 0 -1.671875 -0.40625q-0.734375 -0.421875 -1.15625 -1.203125q-0.40625 -0.78125 -0.40625 -1.859375q0 -1.078125 0.40625 -1.859375q0.421875 -0.78125 1.15625 -1.1875q0.734375 -0.421875 1.671875 -0.421875zm0 0.921875q-0.6875 0 -1.171875 0.3125q-0.46875 0.296875 -0.734375 0.875q-0.25 0.5625 -0.25 1.359375q0 0.78125 0.25 1.359375q0.265625 0.5625 0.734375 0.875q0.484375 0.3125 1.171875 0.3125q0.671875 0 1.15625 -0.3125q0.484375 -0.3125 0.734375 -0.875q0.265625 -0.578125 0.265625 -1.359375q0 -0.796875 -0.265625 -1.359375q-0.25 -0.578125 -0.734375 -0.875q-0.484375 -0.3125 -1.15625 -0.3125zm5.231201 5.875l0 -6.65625l0.9375 0l0.09375 1.484375l-0.171875 -0.140625q0.21875 -0.53125 0.578125 -0.859375q0.359375 -0.328125 0.828125 -0.46875q0.46875 -0.15625 0.984375 -0.15625q0.71875 0 1.296875 0.28125q0.59375 0.265625 0.9375 0.828125q0.359375 0.5625 0.359375 1.421875l0 4.265625l-1.0625 0l0 -3.890625q0 -1.109375 -0.484375 -1.53125q-0.46875 -0.4375 -1.15625 -0.4375q-0.484375 0 -0.96875 0.234375q-0.46875 0.21875 -0.78125 0.734375q-0.3125 0.5 -0.3125 1.34375l0 3.546875l-1.078125 0zm9.734863 -8.5625l0 6.71875q0 0.5 0.28125 0.75q0.28125 0.234375 0.71875 0.234375q0.390625 0 0.671875 -0.140625q0.28125 -0.140625 0.5 -0.359375l0.375 0.890625q-0.3125 0.28125 -0.734375 0.453125q-0.40625 0.15625 -0.953125 0.15625q-0.515625 0 -0.953125 -0.1875q-0.4375 -0.1875 -0.703125 -0.578125q-0.25 -0.390625 -0.265625 -1.03125l0 -6.609375l1.0625 -0.296875zm2.421875 1.90625l0 0.90625l-4.828125 0l0 -0.90625l4.828125 0zm4.3813477 6.796875q-0.953125 0 -1.703125 -0.40625q-0.734375 -0.421875 -1.15625 -1.203125q-0.40625 -0.78125 -0.40625 -1.859375q0 -1.078125 0.40625 -1.859375q0.421875 -0.78125 1.140625 -1.1875q0.71875 -0.421875 1.640625 -0.421875q0.9375 0 1.59375 0.40625q0.65625 0.390625 1.0 1.078125q0.359375 0.6875 0.359375 1.546875q0 0.21875 -0.015625 0.40625q-0.015625 0.1875 -0.046875 0.328125l-5.375 0l0 -0.9375l4.921875 0l-0.546875 0.109375q0 -0.96875 -0.53125 -1.484375q-0.53125 -0.515625 -1.375 -0.515625q-0.65625 0 -1.140625 0.296875q-0.46875 0.296875 -0.734375 0.875q-0.25 0.5625 -0.25 1.359375q0 0.78125 0.265625 1.359375q0.265625 0.5625 0.75 0.875q0.484375 0.296875 1.171875 0.296875q0.734375 0 1.1875 -0.28125q0.46875 -0.28125 0.75 -0.765625l0.828125 0.5q-0.25 0.453125 -0.640625 0.78125q-0.390625 0.328125 -0.921875 0.515625q-0.53125 0.1875 -1.171875 0.1875zm5.2807007 -6.796875l1.984375 2.78125l0.078125 0.09375l2.71875 3.78125l-1.296875 0l-2.0625 -2.890625l-0.125 -0.140625l-2.625 -3.625l1.328125 0zm4.75 0l-2.640625 3.546875l-0.0625 0l-2.296875 3.109375l-1.234375 0l2.90625 -3.828125l0.078125 0l2.0 -2.828125l1.25 0zm3.2913818 -1.90625l0 6.71875q0 0.5 0.28125 0.75q0.28125 0.234375 0.71875 0.234375q0.390625 0 0.671875 -0.140625q0.28125 -0.140625 0.5 -0.359375l0.375 0.890625q-0.3125 0.28125 -0.734375 0.453125q-0.40625 0.15625 -0.953125 0.15625q-0.515625 0 -0.953125 -0.1875q-0.4375 -0.1875 -0.703125 -0.578125q-0.25 -0.390625 -0.265625 -1.03125l0 -6.609375l1.0625 -0.296875zm2.421875 1.90625l0 0.90625l-4.828125 0l0 -0.90625l4.828125 0zm5.7838135 2.625l0 1.09375l-4.390625 0l0 -1.09375l4.390625 0zm5.14917 -4.90625q1.15625 0 2.0 0.484375q0.84375 0.46875 1.390625 1.390625l-0.890625 0.6875q-0.484375 -0.84375 -1.109375 -1.203125q-0.625 -0.359375 -1.5 -0.359375q-0.703125 0 -1.171875 0.203125q-0.453125 0.203125 -0.671875 0.53125q-0.203125 0.328125 -0.203125 0.734375q0 0.46875 0.28125 0.828125q0.296875 0.34375 1.1875 0.546875l1.90625 0.421875q1.265625 0.28125 1.765625 0.859375q0.5 0.5625 0.5 1.40625q0 0.734375 -0.421875 1.328125q-0.421875 0.578125 -1.1875 0.90625q-0.75 0.3125 -1.78125 0.3125q-0.953125 0 -1.6875 -0.265625q-0.71875 -0.265625 -1.25 -0.703125q-0.515625 -0.4375 -0.84375 -0.984375l0.921875 -0.765625q0.265625 0.515625 0.65625 0.90625q0.40625 0.375 0.96875 0.59375q0.5625 0.21875 1.296875 0.21875q0.6875 0 1.1875 -0.171875q0.5 -0.171875 0.765625 -0.5q0.265625 -0.328125 0.265625 -0.78125q0 -0.4375 -0.28125 -0.765625q-0.28125 -0.34375 -1.0625 -0.515625l-2.0625 -0.46875q-0.8125 -0.1875 -1.3125 -0.515625q-0.5 -0.328125 -0.71875 -0.765625q-0.21875 -0.453125 -0.21875 -0.96875q0 -0.71875 0.390625 -1.296875q0.390625 -0.59375 1.125 -0.953125q0.75 -0.375 1.765625 -0.375zm8.30896 9.078125q-0.953125 0 -1.703125 -0.40625q-0.734375 -0.421875 -1.15625 -1.203125q-0.40625 -0.78125 -0.40625 -1.859375q0 -1.078125 0.40625 -1.859375q0.421875 -0.78125 1.140625 -1.1875q0.71875 -0.421875 1.640625 -0.421875q0.9375 0 1.59375 0.40625q0.65625 0.390625 1.0 1.078125q0.359375 0.6875 0.359375 1.546875q0 0.21875 -0.015625 0.40625q-0.015625 0.1875 -0.046875 0.328125l-5.375 0l0 -0.9375l4.921875 0l-0.546875 0.109375q0 -0.96875 -0.53125 -1.484375q-0.53125 -0.515625 -1.375 -0.515625q-0.65625 0 -1.140625 0.296875q-0.46875 0.296875 -0.734375 0.875q-0.25 0.5625 -0.25 1.359375q0 0.78125 0.265625 1.359375q0.265625 0.5625 0.75 0.875q0.484375 0.296875 1.171875 0.296875q0.734375 0 1.1875 -0.28125q0.46875 -0.28125 0.75 -0.765625l0.828125 0.5q-0.25 0.453125 -0.640625 0.78125q-0.390625 0.328125 -0.921875 0.515625q-0.53125 0.1875 -1.171875 0.1875zm4.8933716 -0.140625l0 -6.65625l0.9375 0l0.09375 1.484375l-0.171875 -0.140625q0.21875 -0.53125 0.578125 -0.859375q0.359375 -0.328125 0.828125 -0.46875q0.46875 -0.15625 0.984375 -0.15625q0.71875 0 1.296875 0.28125q0.59375 0.265625 0.9375 0.828125q0.359375 0.5625 0.359375 1.421875l0 4.265625l-1.0625 0l0 -3.890625q0 -1.109375 -0.484375 -1.53125q-0.46875 -0.4375 -1.15625 -0.4375q-0.484375 0 -0.96875 0.234375q-0.46875 0.21875 -0.78125 0.734375q-0.3125 0.5 -0.3125 1.34375l0 3.546875l-1.078125 0zm10.656372 0.140625q-0.96875 0 -1.796875 -0.40625q-0.8125 -0.421875 -1.25 -1.1875l0.90625 -0.65625q0.28125 0.609375 0.84375 0.96875q0.578125 0.34375 1.375 0.34375q0.703125 0 1.09375 -0.265625q0.40625 -0.28125 0.40625 -0.71875q0 -0.28125 -0.1875 -0.515625q-0.171875 -0.234375 -0.671875 -0.34375l-1.59375 -0.328125q-0.984375 -0.203125 -1.40625 -0.671875q-0.40625 -0.46875 -0.40625 -1.15625q0 -0.546875 0.3125 -1.0q0.3125 -0.453125 0.890625 -0.71875q0.578125 -0.28125 1.359375 -0.28125q0.984375 0 1.65625 0.390625q0.6875 0.375 1.03125 1.09375l-0.90625 0.578125q-0.21875 -0.578125 -0.734375 -0.84375q-0.5 -0.28125 -1.046875 -0.28125q-0.484375 0 -0.828125 0.140625q-0.328125 0.125 -0.515625 0.359375q-0.171875 0.234375 -0.171875 0.515625q0 0.296875 0.203125 0.546875q0.203125 0.25 0.75 0.359375l1.65625 0.34375q0.9375 0.1875 1.3125 0.609375q0.375 0.421875 0.375 1.03125q0 0.640625 -0.34375 1.109375q-0.328125 0.46875 -0.9375 0.734375q-0.59375 0.25 -1.375 0.25zm5.1488647 -8.078125q-0.359375 0 -0.578125 -0.21875q-0.21875 -0.234375 -0.21875 -0.59375q0 -0.359375 0.21875 -0.578125q0.21875 -0.21875 0.578125 -0.21875q0.359375 0 0.578125 0.21875q0.234375 0.21875 0.234375 0.578125q0 0.359375 -0.234375 0.59375q-0.21875 0.21875 -0.578125 0.21875zm0.546875 1.28125l0 6.65625l-1.078125 0l0 -6.65625l1.078125 0zm4.045288 -1.90625l0 6.71875q0 0.5 0.28125 0.75q0.28125 0.234375 0.71875 0.234375q0.390625 0 0.671875 -0.140625q0.28125 -0.140625 0.5 -0.359375l0.375 0.890625q-0.3125 0.28125 -0.734375 0.453125q-0.40625 0.15625 -0.953125 0.15625q-0.515625 0 -0.953125 -0.1875q-0.4375 -0.1875 -0.703125 -0.578125q-0.25 -0.390625 -0.265625 -1.03125l0 -6.609375l1.0625 -0.296875zm2.421875 1.90625l0 0.90625l-4.828125 0l0 -0.90625l4.828125 0zm2.1157227 -1.28125q-0.359375 0 -0.578125 -0.21875q-0.21875 -0.234375 -0.21875 -0.59375q0 -0.359375 0.21875 -0.578125q0.21875 -0.21875 0.578125 -0.21875q0.359375 0 0.578125 0.21875q0.234375 0.21875 0.234375 0.578125q0 0.359375 -0.234375 0.59375q-0.21875 0.21875 -0.578125 0.21875zm0.546875 1.28125l0 6.65625l-1.078125 0l0 -6.65625l1.078125 0zm6.888977 0l1.109375 0l-2.765625 6.65625l-1.0625 0l-2.78125 -6.65625l1.21875 0l2.109375 5.578125l2.171875 -5.578125zm5.305603 6.796875q-0.953125 0 -1.703125 -0.40625q-0.734375 -0.421875 -1.15625 -1.203125q-0.40625 -0.78125 -0.40625 -1.859375q0 -1.078125 0.40625 -1.859375q0.421875 -0.78125 1.140625 -1.1875q0.71875 -0.421875 1.640625 -0.421875q0.9375 0 1.59375 0.40625q0.65625 0.390625 1.0 1.078125q0.359375 0.6875 0.359375 1.546875q0 0.21875 -0.015625 0.40625q-0.015625 0.1875 -0.046875 0.328125l-5.375 0l0 -0.9375l4.921875 0l-0.546875 0.109375q0 -0.96875 -0.53125 -1.484375q-0.53125 -0.515625 -1.375 -0.515625q-0.65625 0 -1.140625 0.296875q-0.46875 0.296875 -0.734375 0.875q-0.25 0.5625 -0.25 1.359375q0 0.78125 0.265625 1.359375q0.265625 0.5625 0.75 0.875q0.484375 0.296875 1.171875 0.296875q0.734375 0 1.1875 -0.28125q0.46875 -0.28125 0.75 -0.765625l0.828125 0.5q-0.25 0.453125 -0.640625 0.78125q-0.390625 0.328125 -0.921875 0.515625q-0.53125 0.1875 -1.171875 0.1875z" fill-rule="nonzero"/><path fill="#f3f3f3" d="m729.5292 213.48845l0 0c0 -31.21019 26.320496 -56.511047 58.788513 -56.511047l0 0c15.591614 0 30.544739 5.953827 41.569702 16.551697c11.024963 10.597885 17.21875 24.971695 17.21875 39.95935l0 0c0 31.21019 -26.320496 56.511063 -58.788452 56.511063l0 0c-32.468018 0 -58.788513 -25.300873 -58.788513 -56.511063z" fill-rule="evenodd"/><path stroke="#666666" stroke-width="1.0" stroke-linejoin="round" stroke-linecap="butt" d="m729.5292 213.48845l0 0c0 -31.21019 26.320496 -56.511047 58.788513 -56.511047l0 0c15.591614 0 30.544739 5.953827 41.569702 16.551697c11.024963 10.597885 17.21875 24.971695 17.21875 39.95935l0 0c0 31.21019 -26.320496 56.511063 -58.788452 56.511063l0 0c-32.468018 0 -58.788513 -25.300873 -58.788513 -56.511063z" fill-rule="evenodd"/><path fill="#000000" fill-opacity="0.0" d="m729.5292 176.02214l117.576965 0l0 29.784973l-117.576965 0z" fill-rule="evenodd"/><path fill="#000000" d="m753.9328 193.46463q-0.28125 0.75 -0.8125 1.296875q-0.515625 0.53125 -1.21875 0.8125q-0.6875 0.28125 -1.515625 0.28125q-1.25 0 -2.171875 -0.546875q-0.90625 -0.5625 -1.40625 -1.578125q-0.5 -1.015625 -0.5 -2.40625q0 -1.40625 0.5 -2.421875q0.5 -1.015625 1.40625 -1.5625q0.921875 -0.5625 2.140625 -0.5625q0.859375 0 1.515625 0.234375q0.671875 0.234375 1.140625 0.703125q0.484375 0.453125 0.765625 1.125l-1.0625 0.484375q-0.28125 -0.75 -0.84375 -1.140625q-0.546875 -0.40625 -1.4375 -0.40625q-0.890625 0 -1.578125 0.421875q-0.671875 0.421875 -1.046875 1.21875q-0.375 0.78125 -0.375 1.90625q0 1.09375 0.359375 1.890625q0.359375 0.796875 1.015625 1.21875q0.671875 0.421875 1.578125 0.421875q0.875 0 1.53125 -0.453125q0.65625 -0.453125 0.953125 -1.34375l1.0625 0.40625zm4.6118164 -4.546875q0.9375 0 1.65625 0.421875q0.734375 0.40625 1.140625 1.1875q0.421875 0.78125 0.421875 1.859375q0 1.078125 -0.421875 1.859375q-0.40625 0.78125 -1.140625 1.203125q-0.71875 0.40625 -1.65625 0.40625q-0.9375 0 -1.671875 -0.40625q-0.734375 -0.421875 -1.15625 -1.203125q-0.40625 -0.78125 -0.40625 -1.859375q0 -1.078125 0.40625 -1.859375q0.421875 -0.78125 1.15625 -1.1875q0.734375 -0.421875 1.671875 -0.421875zm0 0.921875q-0.6875 0 -1.171875 0.3125q-0.46875 0.296875 -0.734375 0.875q-0.25 0.5625 -0.25 1.359375q0 0.78125 0.25 1.359375q0.265625 0.5625 0.734375 0.875q0.484375 0.3125 1.171875 0.3125q0.671875 0 1.15625 -0.3125q0.484375 -0.3125 0.734375 -0.875q0.265625 -0.578125 0.265625 -1.359375q0 -0.796875 -0.265625 -1.359375q-0.25 -0.578125 -0.734375 -0.875q-0.484375 -0.3125 -1.15625 -0.3125zm5.231201 5.875l0 -6.65625l0.9375 0l0.09375 1.484375l-0.171875 -0.140625q0.21875 -0.53125 0.578125 -0.859375q0.359375 -0.328125 0.828125 -0.46875q0.46875 -0.15625 0.984375 -0.15625q0.71875 0 1.296875 0.28125q0.59375 0.265625 0.9375 0.828125q0.359375 0.5625 0.359375 1.421875l0 4.265625l-1.0625 0l0 -3.890625q0 -1.109375 -0.484375 -1.53125q-0.46875 -0.4375 -1.15625 -0.4375q-0.484375 0 -0.96875 0.234375q-0.46875 0.21875 -0.78125 0.734375q-0.3125 0.5 -0.3125 1.34375l0 3.546875l-1.078125 0zm9.734863 -8.5625l0 6.71875q0 0.5 0.28125 0.75q0.28125 0.234375 0.71875 0.234375q0.390625 0 0.671875 -0.140625q0.28125 -0.140625 0.5 -0.359375l0.375 0.890625q-0.3125 0.28125 -0.734375 0.453125q-0.40625 0.15625 -0.953125 0.15625q-0.515625 0 -0.953125 -0.1875q-0.4375 -0.1875 -0.703125 -0.578125q-0.25 -0.390625 -0.265625 -1.03125l0 -6.609375l1.0625 -0.296875zm2.421875 1.90625l0 0.90625l-4.828125 0l0 -0.90625l4.828125 0zm4.3813477 6.796875q-0.953125 0 -1.703125 -0.40625q-0.734375 -0.421875 -1.15625 -1.203125q-0.40625 -0.78125 -0.40625 -1.859375q0 -1.078125 0.40625 -1.859375q0.421875 -0.78125 1.140625 -1.1875q0.71875 -0.421875 1.640625 -0.421875q0.9375 0 1.59375 0.40625q0.65625 0.390625 1.0 1.078125q0.359375 0.6875 0.359375 1.546875q0 0.21875 -0.015625 0.40625q-0.015625 0.1875 -0.046875 0.328125l-5.375 0l0 -0.9375l4.921875 0l-0.546875 0.109375q0 -0.96875 -0.53125 -1.484375q-0.53125 -0.515625 -1.375 -0.515625q-0.65625 0 -1.140625 0.296875q-0.46875 0.296875 -0.734375 0.875q-0.25 0.5625 -0.25 1.359375q0 0.78125 0.265625 1.359375q0.265625 0.5625 0.75 0.875q0.484375 0.296875 1.171875 0.296875q0.734375 0 1.1875 -0.28125q0.46875 -0.28125 0.75 -0.765625l0.828125 0.5q-0.25 0.453125 -0.640625 0.78125q-0.390625 0.328125 -0.921875 0.515625q-0.53125 0.1875 -1.171875 0.1875zm5.2807007 -6.796875l1.984375 2.78125l0.078125 0.09375l2.71875 3.78125l-1.296875 0l-2.0625 -2.890625l-0.125 -0.140625l-2.625 -3.625l1.328125 0zm4.75 0l-2.640625 3.546875l-0.0625 0l-2.296875 3.109375l-1.234375 0l2.90625 -3.828125l0.078125 0l2.0 -2.828125l1.25 0zm3.2913818 -1.90625l0 6.71875q0 0.5 0.28125 0.75q0.28125 0.234375 0.71875 0.234375q0.390625 0 0.671875 -0.140625q0.28125 -0.140625 0.5 -0.359375l0.375 0.890625q-0.3125 0.28125 -0.734375 0.453125q-0.40625 0.15625 -0.953125 0.15625q-0.515625 0 -0.953125 -0.1875q-0.4375 -0.1875 -0.703125 -0.578125q-0.25 -0.390625 -0.265625 -1.03125l0 -6.609375l1.0625 -0.296875zm2.421875 1.90625l0 0.90625l-4.828125 0l0 -0.90625l4.828125 0zm5.7838135 2.625l0 1.09375l-4.390625 0l0 -1.09375l4.390625 0zm8.797302 -3.765625l-5.09375 0l0 2.84375l3.984375 0l0 1.0l-3.984375 0l0 3.953125l-1.0625 0l0 -8.796875l6.15625 0l0 1.0zm1.2241211 7.796875l0 -6.65625l0.875 0l0.140625 1.078125q0.28125 -0.609375 0.8125 -0.90625q0.546875 -0.3125 1.328125 -0.3125q0.171875 0 0.375 0.03125q0.203125 0.015625 0.359375 0.109375l-0.1875 0.96875q-0.15625 -0.0625 -0.328125 -0.078125q-0.171875 -0.03125 -0.484375 -0.03125q-0.421875 0 -0.84375 0.25q-0.421875 0.234375 -0.703125 0.71875q-0.265625 0.484375 -0.265625 1.234375l0 3.59375l-1.078125 0zm8.021362 0.140625q-0.953125 0 -1.703125 -0.40625q-0.734375 -0.421875 -1.15625 -1.203125q-0.40625 -0.78125 -0.40625 -1.859375q0 -1.078125 0.40625 -1.859375q0.421875 -0.78125 1.140625 -1.1875q0.71875 -0.421875 1.640625 -0.421875q0.9375 0 1.59375 0.40625q0.65625 0.390625 1.0 1.078125q0.359375 0.6875 0.359375 1.546875q0 0.21875 -0.015625 0.40625q-0.015625 0.1875 -0.046875 0.328125l-5.375 0l0 -0.9375l4.921875 0l-0.546875 0.109375q0 -0.96875 -0.53125 -1.484375q-0.53125 -0.515625 -1.375 -0.515625q-0.65625 0 -1.140625 0.296875q-0.46875 0.296875 -0.734375 0.875q-0.25 0.5625 -0.25 1.359375q0 0.78125 0.265625 1.359375q0.265625 0.5625 0.75 0.875q0.484375 0.296875 1.171875 0.296875q0.734375 0 1.1875 -0.28125q0.46875 -0.28125 0.75 -0.765625l0.828125 0.5q-0.25 0.453125 -0.640625 0.78125q-0.390625 0.328125 -0.921875 0.515625q-0.53125 0.1875 -1.171875 0.1875zm7.6903076 0q-0.953125 0 -1.703125 -0.40625q-0.734375 -0.421875 -1.15625 -1.203125q-0.40625 -0.78125 -0.40625 -1.859375q0 -1.078125 0.40625 -1.859375q0.421875 -0.78125 1.140625 -1.1875q0.71875 -0.421875 1.640625 -0.421875q0.9375 0 1.59375 0.40625q0.65625 0.390625 1.0 1.078125q0.359375 0.6875 0.359375 1.546875q0 0.21875 -0.015625 0.40625q-0.015625 0.1875 -0.046875 0.328125l-5.375 0l0 -0.9375l4.921875 0l-0.546875 0.109375q0 -0.96875 -0.53125 -1.484375q-0.53125 -0.515625 -1.375 -0.515625q-0.65625 0 -1.140625 0.296875q-0.46875 0.296875 -0.734375 0.875q-0.25 0.5625 -0.25 1.359375q0 0.78125 0.265625 1.359375q0.265625 0.5625 0.75 0.875q0.484375 0.296875 1.171875 0.296875q0.734375 0 1.1875 -0.28125q0.46875 -0.28125 0.75 -0.765625l0.828125 0.5q-0.25 0.453125 -0.640625 0.78125q-0.390625 0.328125 -0.921875 0.515625q-0.53125 0.1875 -1.171875 0.1875z" fill-rule="nonzero"/><path fill="#f3f3f3" d="m754.3686 237.90297l0 0c0 -17.726044 15.199524 -32.095856 33.949097 -32.095856l0 0c9.003845 0 17.638916 3.3815155 24.005554 9.400665c6.366699 6.0191345 9.943481 14.182846 9.943481 22.69519l0 0c0 17.726059 -15.199524 32.09587 -33.949036 32.09587l0 0c-18.749573 0 -33.949097 -14.369812 -33.949097 -32.09587z" fill-rule="evenodd"/><path stroke="#666666" stroke-width="1.0" stroke-linejoin="round" stroke-linecap="butt" d="m754.3686 237.90297l0 0c0 -17.726044 15.199524 -32.095856 33.949097 -32.095856l0 0c9.003845 0 17.638916 3.3815155 24.005554 9.400665c6.366699 6.0191345 9.943481 14.182846 9.943481 22.69519l0 0c0 17.726059 -15.199524 32.09587 -33.949036 32.09587l0 0c-18.749573 0 -33.949097 -14.369812 -33.949097 -32.09587z" fill-rule="evenodd"/><path fill="#000000" fill-opacity="0.0" d="m749.9589 223.00677l76.71747 0l0 29.784958l-76.71747 0z" fill-rule="evenodd"/><path fill="#000000" d="m768.733 233.90237q1.359375 0 2.171875 0.703125q0.8125 0.6875 0.8125 1.875q0 1.1875 -0.828125 1.84375q-0.8125 0.65625 -2.15625 0.65625l-0.09375 0.0625l-2.171875 0l0 3.65625l-1.0625 0l0 -8.796875l3.328125 0zm0 4.140625q0.9375 0 1.390625 -0.390625q0.46875 -0.390625 0.46875 -1.171875q0 -0.796875 -0.46875 -1.1875q-0.453125 -0.390625 -1.390625 -0.390625l-2.265625 0l0 3.140625l2.265625 0zm0.609375 0.21875l2.90625 4.4375l-1.265625 0l-2.53125 -3.859375l0.890625 -0.578125zm7.2927246 4.578125q-0.953125 0 -1.703125 -0.40625q-0.734375 -0.421875 -1.15625 -1.203125q-0.40625 -0.78125 -0.40625 -1.859375q0 -1.078125 0.40625 -1.859375q0.421875 -0.78125 1.140625 -1.1875q0.71875 -0.421875 1.640625 -0.421875q0.9375 0 1.59375 0.40625q0.65625 0.390625 1.0 1.078125q0.359375 0.6875 0.359375 1.546875q0 0.21875 -0.015625 0.40625q-0.015625 0.1875 -0.046875 0.328125l-5.375 0l0 -0.9375l4.921875 0l-0.546875 0.109375q0 -0.96875 -0.53125 -1.484375q-0.53125 -0.515625 -1.375 -0.515625q-0.65625 0 -1.140625 0.296875q-0.46875 0.296875 -0.734375 0.875q-0.25 0.5625 -0.25 1.359375q0 0.78125 0.265625 1.359375q0.265625 0.5625 0.75 0.875q0.484375 0.296875 1.171875 0.296875q0.734375 0 1.1875 -0.28125q0.46875 -0.28125 0.75 -0.765625l0.828125 0.5q-0.25 0.453125 -0.640625 0.78125q-0.390625 0.328125 -0.921875 0.515625q-0.53125 0.1875 -1.171875 0.1875zm10.502808 -8.03125l0.25 0.953125q-0.015625 0 -0.046875 0q-0.015625 0 -0.046875 0q-0.65625 0 -1.015625 0.265625q-0.34375 0.25 -0.34375 0.828125l-0.65625 -0.34375q0 -0.515625 0.234375 -0.90625q0.25 -0.390625 0.65625 -0.59375q0.421875 -0.203125 0.90625 -0.203125q0.015625 0 0.03125 0q0.03125 0 0.03125 0zm-2.015625 7.03125q0.9375 0 1.46875 0.4375q0.546875 0.4375 0.546875 1.15625q0 0.65625 -0.4375 1.125q-0.4375 0.484375 -1.171875 0.734375q-0.71875 0.265625 -1.625 0.265625q-1.5625 0 -2.34375 -0.53125q-0.78125 -0.53125 -0.78125 -1.28125q0 -0.53125 0.34375 -0.953125q0.359375 -0.40625 1.203125 -0.46875l-0.09375 0.203125q-0.453125 -0.125 -0.765625 -0.40625q-0.3125 -0.28125 -0.3125 -0.828125q0 -0.546875 0.40625 -0.9375q0.40625 -0.40625 1.203125 -0.5l0.703125 0.359375l-0.140625 0q-0.640625 0.078125 -0.921875 0.34375q-0.265625 0.25 -0.265625 0.546875q0 0.375 0.265625 0.5625q0.28125 0.171875 0.765625 0.171875l1.953125 0zm-1.234375 2.828125q0.78125 0 1.28125 -0.15625q0.5 -0.15625 0.734375 -0.421875q0.234375 -0.25 0.234375 -0.53125q0 -0.359375 -0.28125 -0.578125q-0.28125 -0.21875 -1.03125 -0.21875l-2.046875 0q-0.4375 0 -0.734375 0.21875q-0.28125 0.21875 -0.28125 0.609375q0 0.5 0.5625 0.78125q0.5625 0.296875 1.5625 0.296875zm-0.09375 -8.765625q0.8125 0 1.421875 0.296875q0.625 0.28125 0.96875 0.78125q0.34375 0.5 0.34375 1.171875q0 0.65625 -0.34375 1.171875q-0.34375 0.515625 -0.96875 0.796875q-0.609375 0.28125 -1.421875 0.28125q-1.3125 0 -2.03125 -0.625q-0.703125 -0.640625 -0.703125 -1.625q0 -0.671875 0.359375 -1.171875q0.359375 -0.5 0.96875 -0.78125q0.609375 -0.296875 1.40625 -0.296875zm0 0.859375q-0.6875 0 -1.15625 0.390625q-0.46875 0.375 -0.46875 1.0q0 0.609375 0.46875 1.0q0.46875 0.390625 1.15625 0.390625q0.703125 0 1.15625 -0.390625q0.46875 -0.390625 0.46875 -1.0q0 -0.625 -0.46875 -1.0q-0.453125 -0.390625 -1.15625 -0.390625zm7.246765 6.078125q-0.640625 0 -1.21875 -0.234375q-0.5625 -0.25 -0.921875 -0.78125q-0.34375 -0.546875 -0.34375 -1.421875l0 -4.359375l1.0625 0l0 4.078125q0 1.015625 0.4375 1.40625q0.453125 0.375 1.25 0.375q0.375 0 0.734375 -0.125q0.359375 -0.125 0.640625 -0.390625q0.28125 -0.28125 0.453125 -0.703125q0.171875 -0.4375 0.171875 -1.015625l0 -3.625l1.0625 0l0 6.65625l-0.9375 0l-0.0625 -1.015625q-0.34375 0.609375 -0.9375 0.890625q-0.59375 0.265625 -1.390625 0.265625zm6.8171997 -9.875l0 8.046875q0 0.5 0.1875 0.703125q0.1875 0.1875 0.59375 0.1875q0.28125 0 0.453125 -0.03125q0.171875 -0.046875 0.453125 -0.15625l-0.171875 0.9375q-0.203125 0.09375 -0.46875 0.140625q-0.25 0.046875 -0.515625 0.046875q-0.8125 0 -1.203125 -0.4375q-0.390625 -0.453125 -0.390625 -1.359375l0 -8.078125l1.0625 0zm6.953369 5.421875q0 -0.734375 -0.40625 -1.140625q-0.390625 -0.40625 -1.125 -0.40625q-0.6875 0 -1.171875 0.296875q-0.46875 0.296875 -0.703125 0.96875l-0.859375 -0.53125q0.265625 -0.75 0.984375 -1.203125q0.71875 -0.46875 1.78125 -0.46875q0.71875 0 1.296875 0.25q0.59375 0.25 0.9375 0.75q0.34375 0.5 0.34375 1.28125l0 3.21875q0 0.484375 0.5 0.484375q0.25 0 0.5 -0.0625l-0.0625 0.828125q-0.265625 0.140625 -0.6875 0.140625q-0.390625 0 -0.703125 -0.140625q-0.296875 -0.15625 -0.46875 -0.453125q-0.171875 -0.296875 -0.171875 -0.75l0 -0.140625l0.265625 0.046875q-0.15625 0.515625 -0.546875 0.84375q-0.390625 0.328125 -0.875 0.484375q-0.46875 0.15625 -0.9375 0.15625q-0.59375 0 -1.109375 -0.203125q-0.5 -0.203125 -0.796875 -0.609375q-0.296875 -0.40625 -0.296875 -1.0q0 -0.75 0.5 -1.234375q0.5 -0.5 1.390625 -0.671875l2.640625 -0.515625l0 0.875l-2.140625 0.453125q-0.65625 0.125 -0.984375 0.375q-0.3125 0.234375 -0.3125 0.65625q0 0.421875 0.328125 0.6875q0.328125 0.25 0.921875 0.25q0.390625 0 0.734375 -0.09375q0.359375 -0.109375 0.640625 -0.3125q0.28125 -0.203125 0.4375 -0.515625q0.15625 -0.328125 0.15625 -0.75l0 -1.84375zm3.6530762 4.3125l0 -6.65625l0.875 0l0.140625 1.078125q0.28125 -0.609375 0.8125 -0.90625q0.546875 -0.3125 1.328125 -0.3125q0.171875 0 0.375 0.03125q0.203125 0.015625 0.359375 0.109375l-0.1875 0.96875q-0.15625 -0.0625 -0.328125 -0.078125q-0.171875 -0.03125 -0.484375 -0.03125q-0.421875 0 -0.84375 0.25q-0.421875 0.234375 -0.703125 0.71875q-0.265625 0.484375 -0.265625 1.234375l0 3.59375l-1.078125 0z" fill-rule="nonzero"/><path fill="#000000" fill-opacity="0.0" d="m676.5347 72.02038l223.56586 0l0 29.784966l-223.56586 0z" fill-rule="evenodd"/><path fill="#000000" d="m715.3409 82.915985q1.359375 0 2.171875 0.703125q0.8125 0.6875 0.8125 1.875q0 1.1875 -0.828125 1.84375q-0.8125 0.65625 -2.15625 0.65625l-0.09375 0.0625l-2.171875 0l0 3.65625l-1.0625 0l0 -8.796875l3.328125 0zm0 4.140625q0.9375 0 1.390625 -0.390625q0.46875 -0.390625 0.46875 -1.171875q0 -0.796875 -0.46875 -1.1875q-0.453125 -0.390625 -1.390625 -0.390625l-2.265625 0l0 3.140625l2.265625 0zm0.609375 0.21875l2.90625 4.4375l-1.265625 0l-2.53125 -3.859375l0.890625 -0.578125zm7.2927856 4.578125q-0.953125 0 -1.703125 -0.40625q-0.734375 -0.421875 -1.15625 -1.203125q-0.40625 -0.78125 -0.40625 -1.859375q0 -1.078125 0.40625 -1.859375q0.421875 -0.78125 1.140625 -1.1875q0.71875 -0.421875 1.640625 -0.421875q0.9375 0 1.59375 0.40625q0.65625 0.390625 1.0 1.078125q0.359375 0.6875 0.359375 1.546875q0 0.21875 -0.015625 0.40625q-0.015625 0.1875 -0.046875 0.328125l-5.375 0l0 -0.9375l4.921875 0l-0.546875 0.109375q0 -0.96875 -0.53125 -1.484375q-0.53125 -0.515625 -1.375 -0.515625q-0.65625 0 -1.140625 0.296875q-0.46875 0.296875 -0.734375 0.875q-0.25 0.5625 -0.25 1.359375q0 0.78125 0.265625 1.359375q0.265625 0.5625 0.75 0.875q0.484375 0.296875 1.171875 0.296875q0.734375 0 1.1875 -0.28125q0.46875 -0.28125 0.75 -0.765625l0.828125 0.5q-0.25 0.453125 -0.640625 0.78125q-0.390625 0.328125 -0.921875 0.515625q-0.53125 0.1875 -1.171875 0.1875zm7.6589966 -6.9375q0.6875 0 1.21875 0.21875q0.53125 0.203125 0.90625 0.609375q0.390625 0.390625 0.625 0.9375l-1.0 0.484375q-0.21875 -0.640625 -0.65625 -0.96875q-0.421875 -0.34375 -1.125 -0.34375q-0.65625 0 -1.140625 0.296875q-0.484375 0.296875 -0.734375 0.875q-0.25 0.5625 -0.25 1.359375q0 0.78125 0.25 1.359375q0.25 0.5625 0.734375 0.875q0.484375 0.296875 1.140625 0.296875q0.515625 0 0.890625 -0.15625q0.390625 -0.171875 0.640625 -0.46875q0.25 -0.3125 0.34375 -0.75l0.984375 0.34375q-0.234375 0.609375 -0.625 1.0625q-0.390625 0.4375 -0.953125 0.671875q-0.546875 0.234375 -1.25 0.234375q-0.9375 0 -1.671875 -0.40625q-0.734375 -0.421875 -1.15625 -1.203125q-0.40625 -0.78125 -0.40625 -1.859375q0 -1.078125 0.40625 -1.859375q0.421875 -0.78125 1.15625 -1.1875q0.734375 -0.421875 1.671875 -0.421875zm7.119995 6.9375q-0.640625 0 -1.21875 -0.234375q-0.5625 -0.25 -0.921875 -0.78125q-0.34375 -0.546875 -0.34375 -1.421875l0 -4.359375l1.0625 0l0 4.078125q0 1.015625 0.4375 1.40625q0.453125 0.375 1.25 0.375q0.375 0 0.734375 -0.125q0.359375 -0.125 0.640625 -0.390625q0.28125 -0.28125 0.453125 -0.703125q0.171875 -0.4375 0.171875 -1.015625l0 -3.625l1.0625 0l0 6.65625l-0.9375 0l-0.0625 -1.015625q-0.34375 0.609375 -0.9375 0.890625q-0.59375 0.265625 -1.390625 0.265625zm5.8015747 -0.140625l0 -6.65625l0.875 0l0.140625 1.078125q0.28125 -0.609375 0.8125 -0.90625q0.546875 -0.3125 1.328125 -0.3125q0.171875 0 0.375 0.03125q0.203125 0.015625 0.359375 0.109375l-0.1875 0.96875q-0.15625 -0.0625 -0.328125 -0.078125q-0.171875 -0.03125 -0.484375 -0.03125q-0.421875 0 -0.84375 0.25q-0.421875 0.234375 -0.703125 0.71875q-0.265625 0.484375 -0.265625 1.234375l0 3.59375l-1.078125 0zm7.564087 0.140625q-0.96875 0 -1.796875 -0.40625q-0.8125 -0.421875 -1.25 -1.1875l0.90625 -0.65625q0.28125 0.609375 0.84375 0.96875q0.578125 0.34375 1.375 0.34375q0.703125 0 1.09375 -0.265625q0.40625 -0.28125 0.40625 -0.71875q0 -0.28125 -0.1875 -0.515625q-0.171875 -0.234375 -0.671875 -0.34375l-1.59375 -0.328125q-0.984375 -0.203125 -1.40625 -0.671875q-0.40625 -0.46875 -0.40625 -1.15625q0 -0.546875 0.3125 -1.0q0.3125 -0.453125 0.890625 -0.71875q0.578125 -0.28125 1.359375 -0.28125q0.984375 0 1.65625 0.390625q0.6875 0.375 1.03125 1.09375l-0.90625 0.578125q-0.21875 -0.578125 -0.734375 -0.84375q-0.5 -0.28125 -1.046875 -0.28125q-0.484375 0 -0.828125 0.140625q-0.328125 0.125 -0.515625 0.359375q-0.171875 0.234375 -0.171875 0.515625q0 0.296875 0.203125 0.546875q0.203125 0.25 0.75 0.359375l1.65625 0.34375q0.9375 0.1875 1.3125 0.609375q0.375 0.421875 0.375 1.03125q0 0.640625 -0.34375 1.109375q-0.328125 0.46875 -0.9375 0.734375q-0.59375 0.25 -1.375 0.25zm5.1488647 -8.078125q-0.359375 0 -0.578125 -0.21875q-0.21875 -0.234375 -0.21875 -0.59375q0 -0.359375 0.21875 -0.578125q0.21875 -0.21875 0.578125 -0.21875q0.359375 0 0.578125 0.21875q0.234375 0.21875 0.234375 0.578125q0 0.359375 -0.234375 0.59375q-0.21875 0.21875 -0.578125 0.21875zm0.546875 1.28125l0 6.65625l-1.078125 0l0 -6.65625l1.078125 0zm6.889038 0l1.109375 0l-2.765625 6.65625l-1.0625 0l-2.78125 -6.65625l1.21875 0l2.109375 5.578125l2.171875 -5.578125zm5.305603 6.796875q-0.953125 0 -1.703125 -0.40625q-0.734375 -0.421875 -1.15625 -1.203125q-0.40625 -0.78125 -0.40625 -1.859375q0 -1.078125 0.40625 -1.859375q0.421875 -0.78125 1.140625 -1.1875q0.71875 -0.421875 1.640625 -0.421875q0.9375 0 1.59375 0.40625q0.65625 0.390625 1.0 1.078125q0.359375 0.6875 0.359375 1.546875q0 0.21875 -0.015625 0.40625q-0.015625 0.1875 -0.046875 0.328125l-5.375 0l0 -0.9375l4.921875 0l-0.546875 0.109375q0 -0.96875 -0.53125 -1.484375q-0.53125 -0.515625 -1.375 -0.515625q-0.65625 0 -1.140625 0.296875q-0.46875 0.296875 -0.734375 0.875q-0.25 0.5625 -0.25 1.359375q0 0.78125 0.265625 1.359375q0.265625 0.5625 0.75 0.875q0.484375 0.296875 1.171875 0.296875q0.734375 0 1.1875 -0.28125q0.46875 -0.28125 0.75 -0.765625l0.828125 0.5q-0.25 0.453125 -0.640625 0.78125q-0.390625 0.328125 -0.921875 0.515625q-0.53125 0.1875 -1.171875 0.1875zm5.9090576 -9.875l0 8.046875q0 0.5 0.1875 0.703125q0.1875 0.1875 0.59375 0.1875q0.28125 0 0.453125 -0.03125q0.171875 -0.046875 0.453125 -0.15625l-0.171875 0.9375q-0.203125 0.09375 -0.46875 0.140625q-0.25 0.046875 -0.515625 0.046875q-0.8125 0 -1.203125 -0.4375q-0.390625 -0.453125 -0.390625 -1.359375l0 -8.078125l1.0625 0zm8.213806 3.078125l-3.140625 7.78125q-0.25 0.640625 -0.546875 1.015625q-0.296875 0.390625 -0.671875 0.546875q-0.359375 0.171875 -0.84375 0.171875q-0.453125 0 -0.828125 -0.125q-0.375 -0.125 -0.671875 -0.328125l0.296875 -0.9375q0.265625 0.234375 0.5625 0.34375q0.296875 0.125 0.59375 0.125q0.34375 0 0.640625 -0.21875q0.3125 -0.21875 0.5625 -0.859375l0.359375 -0.875l-0.671875 -1.578125l-2.125 -5.0625l1.21875 0l1.671875 4.34375l0.40625 1.171875l0.484375 -1.3125l1.5625 -4.203125l1.140625 0zm5.807556 6.65625l0 -8.796875l6.171875 0l0 1.0l-5.109375 0l0 2.84375l3.984375 0l0 1.0l-3.984375 0l0 2.953125l5.3125 0l0 1.0l-6.375 0zm8.300232 0l0 -6.65625l0.9375 0l0.09375 1.484375l-0.171875 -0.140625q0.21875 -0.53125 0.578125 -0.859375q0.359375 -0.328125 0.828125 -0.46875q0.46875 -0.15625 0.984375 -0.15625q0.71875 0 1.296875 0.28125q0.59375 0.265625 0.9375 0.828125q0.359375 0.5625 0.359375 1.421875l0 4.265625l-1.0625 0l0 -3.890625q0 -1.109375 -0.484375 -1.53125q-0.46875 -0.4375 -1.15625 -0.4375q-0.484375 0 -0.96875 0.234375q-0.46875 0.21875 -0.78125 0.734375q-0.3125 0.5 -0.3125 1.34375l0 3.546875l-1.078125 0zm10.671936 0.140625q-0.640625 0 -1.21875 -0.234375q-0.5625 -0.25 -0.921875 -0.78125q-0.34375 -0.546875 -0.34375 -1.421875l0 -4.359375l1.0625 0l0 4.078125q0 1.015625 0.4375 1.40625q0.453125 0.375 1.25 0.375q0.375 0 0.734375 -0.125q0.359375 -0.125 0.640625 -0.390625q0.28125 -0.28125 0.453125 -0.703125q0.171875 -0.4375 0.171875 -1.015625l0 -3.625l1.0625 0l0 6.65625l-0.9375 0l-0.0625 -1.015625q-0.34375 0.609375 -0.9375 0.890625q-0.59375 0.265625 -1.390625 0.265625zm5.8015747 -0.140625l0 -6.65625l0.9375 0l0.0625 1.03125q0.359375 -0.609375 0.9375 -0.890625q0.59375 -0.28125 1.203125 -0.28125q0.703125 0 1.328125 0.328125q0.625 0.3125 0.953125 0.984375q0.21875 -0.453125 0.609375 -0.734375q0.390625 -0.296875 0.84375 -0.4375q0.453125 -0.140625 0.875 -0.140625q0.640625 0 1.21875 0.265625q0.578125 0.265625 0.953125 0.828125q0.375 0.5625 0.375 1.4375l0 4.265625l-1.0625 0l0 -4.15625q0 -0.90625 -0.453125 -1.296875q-0.453125 -0.40625 -1.125 -0.40625q-0.515625 0 -0.96875 0.25q-0.453125 0.25 -0.734375 0.75q-0.265625 0.484375 -0.265625 1.203125l0 3.65625l-1.078125 0l0 -4.15625q0 -0.90625 -0.453125 -1.296875q-0.453125 -0.40625 -1.109375 -0.40625q-0.4375 0 -0.90625 0.234375q-0.453125 0.234375 -0.765625 0.734375q-0.296875 0.5 -0.296875 1.328125l0 3.5625l-1.078125 0zm15.498535 0.140625q-0.953125 0 -1.703125 -0.40625q-0.734375 -0.421875 -1.15625 -1.203125q-0.40625 -0.78125 -0.40625 -1.859375q0 -1.078125 0.40625 -1.859375q0.421875 -0.78125 1.140625 -1.1875q0.71875 -0.421875 1.640625 -0.421875q0.9375 0 1.59375 0.40625q0.65625 0.390625 1.0 1.078125q0.359375 0.6875 0.359375 1.546875q0 0.21875 -0.015625 0.40625q-0.015625 0.1875 -0.046875 0.328125l-5.375 0l0 -0.9375l4.921875 0l-0.546875 0.109375q0 -0.96875 -0.53125 -1.484375q-0.53125 -0.515625 -1.375 -0.515625q-0.65625 0 -1.140625 0.296875q-0.46875 0.296875 -0.734375 0.875q-0.25 0.5625 -0.25 1.359375q0 0.78125 0.265625 1.359375q0.265625 0.5625 0.75 0.875q0.484375 0.296875 1.171875 0.296875q0.734375 0 1.1875 -0.28125q0.46875 -0.28125 0.75 -0.765625l0.828125 0.5q-0.25 0.453125 -0.640625 0.78125q-0.390625 0.328125 -0.921875 0.515625q-0.53125 0.1875 -1.171875 0.1875zm4.8933716 -0.140625l0 -6.65625l0.875 0l0.140625 1.078125q0.28125 -0.609375 0.8125 -0.90625q0.546875 -0.3125 1.328125 -0.3125q0.171875 0 0.375 0.03125q0.203125 0.015625 0.359375 0.109375l-0.1875 0.96875q-0.15625 -0.0625 -0.328125 -0.078125q-0.171875 -0.03125 -0.484375 -0.03125q-0.421875 0 -0.84375 0.25q-0.421875 0.234375 -0.703125 0.71875q-0.265625 0.484375 -0.265625 1.234375l0 3.59375l-1.078125 0zm9.141846 -4.3125q0 -0.734375 -0.40625 -1.140625q-0.390625 -0.40625 -1.125 -0.40625q-0.6875 0 -1.171875 0.296875q-0.46875 0.296875 -0.703125 0.96875l-0.859375 -0.53125q0.265625 -0.75 0.984375 -1.203125q0.71875 -0.46875 1.78125 -0.46875q0.71875 0 1.296875 0.25q0.59375 0.25 0.9375 0.75q0.34375 0.5 0.34375 1.28125l0 3.21875q0 0.484375 0.5 0.484375q0.25 0 0.5 -0.0625l-0.0625 0.828125q-0.265625 0.140625 -0.6875 0.140625q-0.390625 0 -0.703125 -0.140625q-0.296875 -0.15625 -0.46875 -0.453125q-0.171875 -0.296875 -0.171875 -0.75l0 -0.140625l0.265625 0.046875q-0.15625 0.515625 -0.546875 0.84375q-0.390625 0.328125 -0.875 0.484375q-0.46875 0.15625 -0.9375 0.15625q-0.59375 0 -1.109375 -0.203125q-0.5 -0.203125 -0.796875 -0.609375q-0.296875 -0.40625 -0.296875 -1.0q0 -0.75 0.5 -1.234375q0.5 -0.5 1.390625 -0.671875l2.640625 -0.515625l0 0.875l-2.140625 0.453125q-0.65625 0.125 -0.984375 0.375q-0.3125 0.234375 -0.3125 0.65625q0 0.421875 0.328125 0.6875q0.328125 0.25 0.921875 0.25q0.390625 0 0.734375 -0.09375q0.359375 -0.109375 0.640625 -0.3125q0.28125 -0.203125 0.4375 -0.515625q0.15625 -0.328125 0.15625 -0.75l0 -1.84375zm6.918701 4.453125q-0.5625 0 -1.046875 -0.203125q-0.46875 -0.203125 -0.8125 -0.5625q-0.34375 -0.359375 -0.515625 -0.8125l0.140625 -0.1875l-0.09375 1.625l-0.9375 0l0 -9.734375l1.078125 0l0 4.578125l-0.140625 -0.203125q0.265625 -0.625 0.890625 -1.03125q0.640625 -0.40625 1.453125 -0.40625q0.828125 0 1.515625 0.421875q0.703125 0.40625 1.109375 1.1875q0.421875 0.765625 0.421875 1.859375q0 1.078125 -0.421875 1.859375q-0.421875 0.78125 -1.125 1.203125q-0.6875 0.40625 -1.515625 0.40625zm-0.109375 -0.9375q1.0 0 1.546875 -0.6875q0.546875 -0.703125 0.546875 -1.84375q0 -1.15625 -0.546875 -1.84375q-0.546875 -0.6875 -1.53125 -0.6875q-0.625 0 -1.09375 0.328125q-0.46875 0.3125 -0.734375 0.890625q-0.265625 0.5625 -0.265625 1.328125q0 0.765625 0.25 1.34375q0.265625 0.5625 0.734375 0.875q0.46875 0.296875 1.09375 0.296875zm6.2160645 -8.9375l0 8.046875q0 0.5 0.1875 0.703125q0.1875 0.1875 0.59375 0.1875q0.28125 0 0.453125 -0.03125q0.171875 -0.046875 0.453125 -0.15625l-0.171875 0.9375q-0.203125 0.09375 -0.46875 0.140625q-0.25 0.046875 -0.515625 0.046875q-0.8125 0 -1.203125 -0.4375q-0.390625 -0.453125 -0.390625 -1.359375l0 -8.078125l1.0625 0zm5.859619 9.875q-0.953125 0 -1.703125 -0.40625q-0.734375 -0.421875 -1.15625 -1.203125q-0.40625 -0.78125 -0.40625 -1.859375q0 -1.078125 0.40625 -1.859375q0.421875 -0.78125 1.140625 -1.1875q0.71875 -0.421875 1.640625 -0.421875q0.9375 0 1.59375 0.40625q0.65625 0.390625 1.0 1.078125q0.359375 0.6875 0.359375 1.546875q0 0.21875 -0.015625 0.40625q-0.015625 0.1875 -0.046875 0.328125l-5.375 0l0 -0.9375l4.921875 0l-0.546875 0.109375q0 -0.96875 -0.53125 -1.484375q-0.53125 -0.515625 -1.375 -0.515625q-0.65625 0 -1.140625 0.296875q-0.46875 0.296875 -0.734375 0.875q-0.25 0.5625 -0.25 1.359375q0 0.78125 0.265625 1.359375q0.265625 0.5625 0.75 0.875q0.484375 0.296875 1.171875 0.296875q0.734375 0 1.1875 -0.28125q0.46875 -0.28125 0.75 -0.765625l0.828125 0.5q-0.25 0.453125 -0.640625 0.78125q-0.390625 0.328125 -0.921875 0.515625q-0.53125 0.1875 -1.171875 0.1875z" fill-rule="nonzero"/></g></svg>